<?xml version="1.0" encoding="UTF-8"?>
<!DOCTYPE svg PUBLIC "-//W3C//DTD SVG 1.1//EN" "http://www.w3.org/Graphics/SVG/1.1/DTD/svg11.dtd">
<!-- Creator: CorelDRAW X7 -->
<svg xmlns="http://www.w3.org/2000/svg" xml:space="preserve" width="11.3766in" height="3.79424in" version="1.1" style="shape-rendering:geometricPrecision; text-rendering:geometricPrecision; image-rendering:optimizeQuality; fill-rule:evenodd; clip-rule:evenodd"
viewBox="0 0 13999 4669"
 xmlns:xlink="http://www.w3.org/1999/xlink">
 <defs>
  <style type="text/css">
   <![CDATA[
    .fil2 {fill:#1C4798}
    .fil0 {fill:#3A569D}
    .fil1 {fill:white}
   ]]>
  </style>
 </defs>
 <g id="Layer_x0020_1">
  <metadata id="CorelCorpID_0Corel-Layer"/>
  <g id="_619058896">
   <path class="fil0" d="M3932 3811c-34,-1475 187,-1332 -665,-1332 -538,0 -667,-73 -666,332 0,329 9,673 -2,1000l-215 -1c-3,-147 12,-1106 -14,-1192 -36,-118 -114,-133 -256,-140l1 -215c79,-1 162,1 231,21 92,27 108,59 165,94 262,-158 342,-115 718,-115 201,0 615,-31 758,60 196,124 161,405 161,668 -1,272 0,544 0,819l-216 1zm-1152 -2344l47 3 -3 540 -49 -3 5 -540zm-2479 -379l215 3 0 1170 517 7 533 -888c44,-75 126,-227 178,-289l177 119 -678 1142c105,63 167,194 243,331 68,123 132,246 202,374 66,122 139,254 200,377 57,113 162,271 200,378l-245 -2c-62,-141 -158,-288 -231,-432 -81,-159 -380,-760 -493,-841 -100,-71 -459,-76 -603,-53l-1 1328 -216 -5 2 -2719zm1229 -221c29,-97 150,-221 161,-299 -69,-59 -346,-191 -381,-258l19 -41c61,14 991,613 1139,701 63,39 125,82 188,120 188,114 181,94 154,164 -104,-33 -327,-218 -419,-242 -33,93 -122,187 -158,278 -89,-28 -597,-387 -703,-423zm-1352 -855c-188,31 -177,164 -177,351l0 3166c0,639 -73,537 1049,537 258,0 3069,14 3184,-6 176,-29 168,-177 168,-351l0 -3166c0,-642 70,-537 -1045,-537 -254,0 -3068,-13 -3179,6z"/>
   <path class="fil0" d="M10500 3815c12,-117 29,-218 -43,-228 -12,-1 -37,-1 -49,-1l-771 0c-304,-9 -233,-258 -233,-659 0,-435 5,-440 439,-440 1020,0 876,-125 876,888 0,149 8,795 -4,885 -20,141 -109,175 -256,177l-868 -3c-152,-17 -183,-111 -188,-261l-229 -6c-4,506 226,503 682,502 196,0 393,-1 589,0 215,0 342,-20 436,-153 112,-157 70,-866 70,-1115 0,-196 2,-393 0,-590 -4,-363 103,-273 268,-333l3 -225c-256,6 -245,10 -405,113 -170,-109 -233,-112 -474,-112 -952,3 -1169,-104 -1169,583 -1,189 -7,389 1,577 18,469 387,405 745,405 139,0 462,17 580,-4z"/>
   <path class="fil1" d="M299 3807l216 5 1 -1328c144,-23 503,-18 603,53 113,81 412,682 493,841 73,144 169,291 231,432l245 2c-38,-107 -143,-265 -200,-378 -61,-123 -134,-255 -200,-377 -70,-128 -134,-251 -202,-374 -76,-137 -138,-268 -243,-331l678 -1142 -177 -119c-52,62 -134,214 -178,289l-533 888 -517 -7 0 -1170 -215 -3 -2 2719z"/>
   <path class="fil0" d="M6639 2487c327,-1 269,191 269,529 -1,203 -24,626 4,803l222 0c15,-76 6,-841 6,-982 -2,-422 97,-350 652,-350 551,0 664,-74 663,337 0,193 -25,855 8,995l219 -1c29,-176 5,-612 5,-814 0,-281 40,-544 -153,-679 -150,-104 -554,-70 -768,-70 -290,0 -527,-39 -721,115 -115,-90 -202,-126 -406,-113l0 230z"/>
   <path class="fil0" d="M6279 3709c121,53 96,114 406,110 12,-55 14,-179 -3,-231 -136,-8 -222,-29 -251,-146 -22,-86 -10,-1059 -9,-1187l-233 0c0,332 0,662 0,992 1,166 2,301 -155,332 -70,14 -905,15 -985,3 -167,-24 -175,-155 -175,-322 0,-330 10,-676 -1,-1004l-232 0c4,277 1,551 1,825 0,271 -38,548 157,672 160,101 541,66 763,66 276,0 528,38 717,-110z"/>
   <path class="fil1" d="M2114 2478c142,7 220,22 256,140 26,86 11,1045 14,1192l215 1c11,-327 2,-671 2,-1000 -1,-405 128,-332 666,-332 852,0 631,-143 665,1332l216 -1c0,-275 -1,-547 0,-819 0,-263 35,-544 -161,-668 -143,-91 -557,-60 -758,-60 -376,0 -456,-43 -718,115 -57,-35 -73,-67 -165,-94 -69,-20 -152,-22 -231,-21l-1 215z"/>
   <path class="fil0" d="M11940 3820l-2 -234c-304,-5 -268,-146 -268,-416 0,-230 0,-461 0,-692 0,-449 22,-957 -2,-1399l-231 2c-3,231 -16,2249 8,2411 38,270 212,322 495,328z"/>
   <path class="fil1" d="M1310 310c35,67 312,199 381,258 -11,78 -132,202 -161,299 106,36 614,395 703,423 36,-91 125,-185 158,-278 92,24 315,209 419,242 27,-70 34,-50 -154,-164 -63,-38 -125,-81 -188,-120 -148,-88 -1078,-687 -1139,-701l-19 41z"/>
   <polygon class="fil1" points="2775,2007 2824,2010 2827,1470 2780,1467 "/>
   <path class="fil0" d="M13749 2636c42,45 32,189 18,255l-1073 1 -2 220c372,-10 815,25 1174,-9 135,-12 128,-143 128,-279 -1,-517 -97,-569 -665,-569 -803,-1 -1088,-118 -1088,556 0,184 -23,642 33,786 90,231 312,223 594,222 219,0 613,22 807,-8 221,-35 367,-223 313,-492l-218 -3c-24,86 19,261 -235,270 -167,6 -345,0 -513,0 -533,1 -549,61 -549,-480 0,-106 -12,-401 13,-484 46,-156 214,-135 382,-135 171,0 342,0 513,0 161,0 345,-15 368,149z"/>
   <path class="fil2" d="M13866 3103c-359,34 -802,-1 -1174,9l2 -220 1073 -1c14,-66 24,-210 -18,-255l12 242 -1068 0c-26,67 -17,171 -7,242 200,15 766,2 1041,3 64,0 101,8 139,-20z"/>
  </g>
 </g>
</svg>
